<svg xmlns="http://www.w3.org/2000/svg" width="1280" height="720" viewBox="0 0 1280 720">
    <defs>
      <linearGradient id="grad" x1="0" y1="0" x2="1" y2="1">
        <stop offset="0%" stop-color="#c90c0f" stop-opacity="0.18"/>
        <stop offset="100%" stop-color="#c90c0f" stop-opacity="0.02"/>
      </linearGradient>
      <linearGradient id="grad2" x1="1" y1="0" x2="0" y2="1">
        <stop offset="0%" stop-color="#ffffff" stop-opacity="0.06"/>
        <stop offset="100%" stop-color="#ffffff" stop-opacity="0.00"/>
      </linearGradient>
      <filter id="softGlow" x="-50%" y="-50%" width="200%" height="200%">
        <feGaussianBlur stdDeviation="18" result="blur"/>
        <feMerge>
          <feMergeNode in="blur"/>
          <feMergeNode in="SourceGraphic"/>
        </feMerge>
      </filter>
    </defs>
    <rect width="100%" height="100%" fill="#0b0b0b"/>
    <rect x="0" y="0" width="1280" height="720" fill="url(#grad)"/>
    <rect x="0" y="0" width="1280" height="720" fill="url(#grad2)"/>
    <line x1="0" y1="0" x2="0" y2="720" stroke="#ffffff" stroke-opacity="0.06" stroke-width="1"/>
<line x1="80" y1="0" x2="80" y2="720" stroke="#ffffff" stroke-opacity="0.06" stroke-width="1"/>
<line x1="160" y1="0" x2="160" y2="720" stroke="#ffffff" stroke-opacity="0.06" stroke-width="1"/>
<line x1="240" y1="0" x2="240" y2="720" stroke="#ffffff" stroke-opacity="0.06" stroke-width="1"/>
<line x1="320" y1="0" x2="320" y2="720" stroke="#ffffff" stroke-opacity="0.06" stroke-width="1"/>
<line x1="400" y1="0" x2="400" y2="720" stroke="#ffffff" stroke-opacity="0.06" stroke-width="1"/>
<line x1="480" y1="0" x2="480" y2="720" stroke="#ffffff" stroke-opacity="0.06" stroke-width="1"/>
<line x1="560" y1="0" x2="560" y2="720" stroke="#ffffff" stroke-opacity="0.06" stroke-width="1"/>
<line x1="640" y1="0" x2="640" y2="720" stroke="#ffffff" stroke-opacity="0.06" stroke-width="1"/>
<line x1="720" y1="0" x2="720" y2="720" stroke="#ffffff" stroke-opacity="0.06" stroke-width="1"/>
<line x1="800" y1="0" x2="800" y2="720" stroke="#ffffff" stroke-opacity="0.06" stroke-width="1"/>
<line x1="880" y1="0" x2="880" y2="720" stroke="#ffffff" stroke-opacity="0.06" stroke-width="1"/>
<line x1="960" y1="0" x2="960" y2="720" stroke="#ffffff" stroke-opacity="0.06" stroke-width="1"/>
<line x1="1040" y1="0" x2="1040" y2="720" stroke="#ffffff" stroke-opacity="0.06" stroke-width="1"/>
<line x1="1120" y1="0" x2="1120" y2="720" stroke="#ffffff" stroke-opacity="0.06" stroke-width="1"/>
<line x1="1200" y1="0" x2="1200" y2="720" stroke="#ffffff" stroke-opacity="0.06" stroke-width="1"/>
<line x1="1280" y1="0" x2="1280" y2="720" stroke="#ffffff" stroke-opacity="0.06" stroke-width="1"/>
<line x1="0" y1="0" x2="1280" y2="0" stroke="#ffffff" stroke-opacity="0.06" stroke-width="1"/>
<line x1="0" y1="80" x2="1280" y2="80" stroke="#ffffff" stroke-opacity="0.06" stroke-width="1"/>
<line x1="0" y1="160" x2="1280" y2="160" stroke="#ffffff" stroke-opacity="0.06" stroke-width="1"/>
<line x1="0" y1="240" x2="1280" y2="240" stroke="#ffffff" stroke-opacity="0.06" stroke-width="1"/>
<line x1="0" y1="320" x2="1280" y2="320" stroke="#ffffff" stroke-opacity="0.06" stroke-width="1"/>
<line x1="0" y1="400" x2="1280" y2="400" stroke="#ffffff" stroke-opacity="0.06" stroke-width="1"/>
<line x1="0" y1="480" x2="1280" y2="480" stroke="#ffffff" stroke-opacity="0.06" stroke-width="1"/>
<line x1="0" y1="560" x2="1280" y2="560" stroke="#ffffff" stroke-opacity="0.06" stroke-width="1"/>
<line x1="0" y1="640" x2="1280" y2="640" stroke="#ffffff" stroke-opacity="0.06" stroke-width="1"/>
<line x1="0" y1="720" x2="1280" y2="720" stroke="#ffffff" stroke-opacity="0.06" stroke-width="1"/>
    <g transform="translate(420, 240) scale(2)" fill="none" stroke="#ffffff" stroke-width="4" stroke-linecap="round" stroke-linejoin="round">
      <circle cx="40" cy="120" r="12" fill="#ffffff" opacity="0.9"/>
      <circle cx="110" cy="120" r="12" fill="#ffffff" opacity="0.9"/>
      <path d="M10 20 h20 l12 70 h86 l16 -56 h-118" />
      <path d="M8 20 a8 8 0 0 1 8 -8 h20" />
    </g>
    <circle cx="448.0" cy="302.4" r="70" fill="#c90c0f" opacity="0.28" filter="url(#softGlow)"/>
    
    <text x="640" y="672" text-anchor="middle" font-family="Inter, Arial, sans-serif"
          font-weight="700" font-size="42" fill="#ffffff" opacity="0.9">E‑commerce</text>
    </svg>